<svg width="68" height="68" viewBox="0 0 68 68" fill="none" xmlns="http://www.w3.org/2000/svg">
<path fill-rule="evenodd" clip-rule="evenodd" d="M42.897 34.5031C43.1456 27.4491 43.5334 12.4046 43.5334 12.4046C43.5334 12.4046 31.5278 12.2759 23.2349 19.4699C17.3287 24.5935 9.51537 33.2304 9.51537 33.2304L24.834 33.8667C24.834 33.8667 81.6151 35.8671 42.897 34.5031ZM24.834 33.8667L34.1837 25.1534C34.1837 25.1534 39.4943 30.8518 42.897 34.5031C35.843 34.2546 24.834 33.8667 24.834 33.8667Z" fill="white"/>
<path fill-rule="evenodd" clip-rule="evenodd" d="M24.831 33.8653C24.5825 40.9194 24.1946 55.9639 24.1946 55.9639C24.1946 55.9639 36.2002 56.0925 44.4931 48.8985C50.3994 43.7749 58.2127 35.138 58.2127 35.138L42.894 34.5017C42.894 34.5017 -13.8871 32.5013 24.831 33.8653ZM42.894 34.5017L33.5443 43.215C33.5443 43.215 28.2338 37.5166 24.831 33.8653C31.885 34.1138 42.894 34.5017 42.894 34.5017Z" fill="white"/>
</svg>
